<svg width="97" height="96" viewBox="0 0 97 96" fill="none" xmlns="http://www.w3.org/2000/svg">
<g clip-path="url(#clip0_29_117)">
<path d="M48.5037 8C26.4237 8 8.50366 25.92 8.50366 48C8.50366 70.08 26.4237 88 48.5037 88C70.5837 88 88.5037 70.08 88.5037 48C88.5037 25.92 70.5837 8 48.5037 8ZM64.5037 52H52.5037V64C52.5037 66.2 50.7037 68 48.5037 68C46.3037 68 44.5037 66.2 44.5037 64V52H32.5037C30.3037 52 28.5037 50.2 28.5037 48C28.5037 45.8 30.3037 44 32.5037 44H44.5037V32C44.5037 29.8 46.3037 28 48.5037 28C50.7037 28 52.5037 29.8 52.5037 32V44H64.5037C66.7037 44 68.5037 45.8 68.5037 48C68.5037 50.2 66.7037 52 64.5037 52Z" fill="black"/>
<path d="M48.5037 8C26.4237 8 8.50366 25.92 8.50366 48C8.50366 70.08 26.4237 88 48.5037 88C70.5837 88 88.5037 70.08 88.5037 48C88.5037 25.92 70.5837 8 48.5037 8ZM64.5037 52H52.5037V64C52.5037 66.2 50.7037 68 48.5037 68C46.3037 68 44.5037 66.2 44.5037 64V52H32.5037C30.3037 52 28.5037 50.2 28.5037 48C28.5037 45.8 30.3037 44 32.5037 44H44.5037V32C44.5037 29.8 46.3037 28 48.5037 28C50.7037 28 52.5037 29.8 52.5037 32V44H64.5037C66.7037 44 68.5037 45.8 68.5037 48C68.5037 50.2 66.7037 52 64.5037 52Z" fill="url(#paint0_linear_29_117)"/>
</g>
<defs>
<linearGradient id="paint0_linear_29_117" x1="83.6612" y1="8" x2="14.0878" y2="81.3944" gradientUnits="userSpaceOnUse">
<stop offset="0.0001" stop-color="#1686EE"/>
<stop offset="1" stop-color="#8312F4"/>
</linearGradient>
<clipPath id="clip0_29_117">
<rect width="96" height="96" fill="white" transform="translate(0.503662)"/>
</clipPath>
</defs>
</svg>
