<svg width="82" height="80" viewBox="0 0 82 80" fill="none" xmlns="http://www.w3.org/2000/svg">
<rect x="0.512939" width="80.9741" height="80" rx="40" fill="url(#paint0_linear_34_1380)"/>
<path d="M40.9983 44.4648C43.9629 44.4648 46.356 42.0716 46.356 39.107V28.3916C46.356 25.4269 43.9629 23.0338 40.9983 23.0338C38.0337 23.0338 35.6405 25.4269 35.6405 28.3916V39.107C35.6405 42.0716 38.0337 44.4648 40.9983 44.4648ZM39.2124 28.3916C39.2124 27.4093 40.016 26.6056 40.9983 26.6056C41.9805 26.6056 42.7842 27.4093 42.7842 28.3916V39.107C42.7842 40.0893 41.9805 40.8929 40.9983 40.8929C40.016 40.8929 39.2124 40.0893 39.2124 39.107V28.3916ZM51.553 39.107C50.6779 39.107 49.9457 39.75 49.8028 40.625C49.0706 44.8219 45.4095 48.0366 40.9983 48.0366C36.5871 48.0366 32.926 44.8219 32.1937 40.625C32.0509 39.75 31.3186 39.107 30.4435 39.107C29.3541 39.107 28.4969 40.0714 28.6576 41.143C29.5327 46.5007 33.8189 50.6976 39.2124 51.4655V55.1802C39.2124 56.1625 40.016 56.9661 40.9983 56.9661C41.9805 56.9661 42.7842 56.1625 42.7842 55.1802V51.4655C48.1776 50.6976 52.4638 46.5007 53.3389 41.143C53.5175 40.0714 52.6424 39.107 51.553 39.107Z" fill="white"/>
<defs>
<linearGradient id="paint0_linear_34_1380" x1="76.5856" y1="1.04428e-06" x2="7.06217" y2="74.2346" gradientUnits="userSpaceOnUse">
<stop offset="0.0001" stop-color="#1686EE"/>
<stop offset="1" stop-color="#8312F4"/>
</linearGradient>
</defs>
</svg>
