<svg width="224" height="162" viewBox="0 0 224 162" fill="none" xmlns="http://www.w3.org/2000/svg">
<g clip-path="url(#clip0_31_252)">
<path opacity="0.1" d="M130.436 28.57C116.076 28.0691 102.388 23.4161 89.337 18.3264C76.2863 13.2366 63.3512 7.59633 49.3271 4.89933C40.3104 3.16274 29.9985 2.9185 22.7349 7.7702C15.7434 12.4377 13.4852 20.4956 12.2704 27.9718C11.3568 33.5976 10.8268 39.5174 13.3243 44.7851C15.0629 48.4404 18.1482 51.5141 20.2827 55.0163C27.7072 67.2014 22.4585 82.2285 14.4112 94.1362C10.637 99.7248 6.25862 105.042 3.34655 110.985C0.434487 116.927 -0.9143 123.735 1.63479 129.795C4.16119 135.798 10.1792 140.314 16.7004 143.487C29.9449 149.927 45.5509 151.769 60.7691 152.824C94.4558 155.136 128.324 154.135 162.099 153.133C174.599 152.76 187.155 152.386 199.451 150.442C206.279 149.364 213.331 147.654 218.289 143.527C224.581 138.286 226.142 129.415 221.925 122.843C214.851 111.823 195.293 109.085 190.348 97.2576C187.627 90.7479 190.422 83.4952 194.378 77.4575C202.86 64.5065 217.082 53.1431 217.831 38.3376C218.346 28.1684 211.51 17.9869 200.938 13.1745C189.859 8.12621 174.494 8.76372 166.321 17.1072C157.905 25.7033 143.113 29.0109 130.436 28.57Z" fill="#7238DE"/>
<path d="M50.2489 150.072C50.2489 150.072 38.9058 141.465 36.763 130.518C35.8941 125.92 33.5632 121.729 30.1201 118.573C28.473 117.088 26.694 115.758 24.8054 114.599" stroke="#535461" stroke-width="2" stroke-miterlimit="10"/>
<path d="M23.4175 107.702C24.4116 109.052 24.8611 114.771 24.8611 114.771C24.8611 114.771 19.5464 112.67 18.5503 111.322C18.072 110.674 17.8696 109.862 17.9878 109.065C18.1059 108.267 18.5349 107.55 19.1804 107.07C19.8258 106.59 20.6348 106.387 21.4294 106.505C22.224 106.624 22.9392 107.054 23.4175 107.702Z" fill="#7238DE"/>
<path d="M32.9497 112.189C33.0529 113.864 30.3367 118.91 30.3367 118.91C30.3367 118.91 27.0101 114.245 26.9049 112.57C26.8649 111.772 27.14 110.99 27.6704 110.394C28.2009 109.798 28.9441 109.435 29.7389 109.385C30.5338 109.335 31.3163 109.601 31.9169 110.126C32.5175 110.651 32.8879 111.392 32.9477 112.189H32.9497Z" fill="#7238DE"/>
<path d="M42.1892 125.089C41.4385 126.587 36.5527 129.568 36.5527 129.568C36.5527 129.568 36.0309 123.855 36.7816 122.356C37.1512 121.652 37.7816 121.121 38.5373 120.878C39.293 120.635 40.1135 120.699 40.8222 121.058C41.5309 121.416 42.0713 122.039 42.3269 122.793C42.5826 123.546 42.5331 124.371 42.1892 125.089Z" fill="#7238DE"/>
<path d="M46.9925 136.423C46.5037 138.027 42.1913 141.792 42.1913 141.792C42.1913 141.792 40.7126 136.251 41.2014 134.645C41.4363 133.874 41.9667 133.229 42.6758 132.85C43.3849 132.472 44.2148 132.392 44.9827 132.628C45.7507 132.864 46.3938 133.396 46.7707 134.108C47.1477 134.819 47.2274 135.652 46.9925 136.423Z" fill="#7238DE"/>
<path d="M25.4202 122.967C27.0701 123.191 32.2858 120.827 32.2858 120.827C32.2858 120.827 27.8847 117.167 26.2266 116.944C25.4307 116.837 24.625 117.051 23.9866 117.54C23.3483 118.029 22.9296 118.752 22.8226 119.551C22.7157 120.35 22.9293 121.158 23.4164 121.799C23.9036 122.44 24.6243 122.86 25.4202 122.967Z" fill="#7238DE"/>
<path d="M31.205 136.154C32.8549 135.87 37.1178 132.052 37.1178 132.052C37.1178 132.052 31.8258 129.882 30.1779 130.166C29.7834 130.231 29.4056 130.374 29.0663 130.586C28.727 130.798 28.433 131.076 28.2012 131.402C27.9693 131.729 27.8043 132.099 27.7156 132.49C27.6269 132.882 27.6163 133.287 27.6844 133.682C27.7525 134.077 27.8979 134.455 28.1123 134.794C28.3267 135.133 28.6058 135.425 28.9335 135.655C29.2612 135.885 29.631 136.047 30.0216 136.133C30.4122 136.219 30.8158 136.226 31.2091 136.154H31.205Z" fill="#7238DE"/>
<path d="M38.578 148.198C40.2505 148.198 45.0971 145.158 45.0971 145.158C45.0971 145.158 40.2485 142.121 38.5759 142.121C37.7729 142.121 37.0029 142.441 36.4351 143.011C35.8673 143.581 35.5483 144.354 35.5483 145.16C35.5483 145.966 35.8673 146.739 36.4351 147.308C37.0029 147.878 37.7729 148.198 38.5759 148.198H38.578Z" fill="#7238DE"/>
<path d="M160.441 75.634C160.441 75.634 167.433 63.2046 177.971 59.6238C182.397 58.1488 186.226 55.2735 188.885 51.4293C190.133 49.5914 191.209 47.6424 192.101 45.6068" stroke="#535461" stroke-width="2" stroke-miterlimit="10"/>
<path d="M198.717 43.33C197.517 44.4974 191.93 45.7062 191.93 45.7062C191.93 45.7062 193.301 40.1383 194.501 38.9689C195.081 38.4245 195.85 38.1302 196.643 38.1493C197.437 38.1685 198.191 38.4995 198.744 39.0713C199.296 39.643 199.603 40.4096 199.598 41.2061C199.593 42.0026 199.277 42.7653 198.717 43.33Z" fill="#7238DE"/>
<path d="M195.557 53.3956C193.907 53.7226 188.572 51.6901 188.572 51.6901C188.572 51.6901 192.738 47.7574 194.378 47.4365C194.771 47.3489 195.178 47.341 195.575 47.4134C195.972 47.4858 196.35 47.637 196.688 47.8582C197.026 48.0794 197.316 48.366 197.542 48.7013C197.768 49.0366 197.924 49.4138 198.003 49.8108C198.082 50.2077 198.08 50.6165 197.999 51.0129C197.918 51.4094 197.759 51.7857 197.532 52.1196C197.304 52.4535 197.012 52.7384 196.673 52.9575C196.334 53.1767 195.954 53.3256 195.557 53.3956Z" fill="#7238DE"/>
<path d="M184.057 64.2995C182.478 63.751 178.887 59.2884 178.887 59.2884C178.887 59.2884 184.455 58.0092 186.039 58.5577C186.42 58.6844 186.772 58.8857 187.074 59.1499C187.376 59.4141 187.624 59.736 187.801 60.0968C187.978 60.4577 188.083 60.8503 188.108 61.2519C188.133 61.6535 188.078 62.0561 187.947 62.4364C187.816 62.8166 187.61 63.1669 187.343 63.4668C187.076 63.7668 186.752 64.0106 186.39 64.1839C186.028 64.3572 185.636 64.4567 185.235 64.4765C184.835 64.4964 184.435 64.4362 184.057 64.2995Z" fill="#7238DE"/>
<path d="M173.49 70.5836C171.84 70.3104 167.558 66.5122 167.558 66.5122C167.558 66.5122 172.836 64.3058 174.484 64.579C175.277 64.7099 175.986 65.1517 176.454 65.8071C176.923 66.4625 177.113 67.2779 176.982 68.0739C176.852 68.8699 176.412 69.5812 175.759 70.0515C175.106 70.5218 174.293 70.7124 173.5 70.5815L173.49 70.5836Z" fill="#7238DE"/>
<path d="M183.913 47.3372C183.911 49.0158 186.945 53.8862 186.945 53.8862C186.945 53.8862 189.974 49.022 189.974 47.3455C189.985 46.9399 189.914 46.5363 189.767 46.1586C189.62 45.7808 189.399 45.4364 189.116 45.1458C188.834 44.8553 188.497 44.6243 188.125 44.4666C187.752 44.3089 187.352 44.2277 186.948 44.2277C186.544 44.2277 186.143 44.3089 185.771 44.4666C185.399 44.6243 185.061 44.8553 184.779 45.1458C184.497 45.4364 184.276 45.7808 184.129 46.1586C183.981 46.5363 183.911 46.9399 183.921 47.3455L183.913 47.3372Z" fill="#7238DE"/>
<path d="M171.656 54.8425C172.156 56.4445 176.495 60.1806 176.495 60.1806C176.495 60.1806 177.938 54.6293 177.435 53.0272C177.174 52.285 176.636 51.6733 175.935 51.3211C175.234 50.9688 174.424 50.9034 173.675 51.1387C172.927 51.3739 172.299 51.8915 171.923 52.5823C171.547 53.2732 171.453 54.0834 171.661 54.8425H171.656Z" fill="#7238DE"/>
<path d="M160.753 63.7779C160.975 65.4338 164.622 69.857 164.622 69.857C164.622 69.857 166.975 64.6307 166.752 62.9686C166.708 62.5659 166.584 62.1761 166.387 61.8222C166.191 61.4683 165.926 61.1574 165.608 60.9078C165.29 60.6582 164.926 60.475 164.536 60.3688C164.146 60.2627 163.74 60.2358 163.339 60.2898C162.939 60.3437 162.554 60.4775 162.206 60.6831C161.858 60.8887 161.555 61.162 161.314 61.4871C161.073 61.8121 160.899 62.1822 160.803 62.5756C160.706 62.969 160.689 63.3778 160.753 63.7779Z" fill="#7238DE"/>
<path opacity="0.25" d="M198.717 43.33C197.517 44.4974 191.93 45.7062 191.93 45.7062C191.93 45.7062 193.301 40.1383 194.501 38.9689C195.081 38.4245 195.85 38.1302 196.643 38.1493C197.437 38.1685 198.191 38.4995 198.744 39.0713C199.296 39.643 199.603 40.4096 199.598 41.2061C199.593 42.0026 199.277 42.7653 198.717 43.33Z" fill="black"/>
<path opacity="0.25" d="M195.557 53.3956C193.907 53.7226 188.572 51.6901 188.572 51.6901C188.572 51.6901 192.738 47.7574 194.378 47.4365C194.771 47.3489 195.178 47.341 195.575 47.4134C195.972 47.4858 196.35 47.637 196.688 47.8582C197.026 48.0794 197.316 48.366 197.542 48.7013C197.768 49.0366 197.924 49.4138 198.003 49.8108C198.082 50.2077 198.08 50.6165 197.999 51.0129C197.918 51.4094 197.759 51.7857 197.532 52.1196C197.304 52.4535 197.012 52.7384 196.673 52.9575C196.334 53.1767 195.954 53.3256 195.557 53.3956Z" fill="black"/>
<path opacity="0.25" d="M184.057 64.2995C182.478 63.751 178.887 59.2884 178.887 59.2884C178.887 59.2884 184.455 58.0092 186.039 58.5577C186.42 58.6844 186.772 58.8857 187.074 59.1499C187.376 59.4141 187.624 59.736 187.801 60.0968C187.978 60.4577 188.083 60.8503 188.108 61.2519C188.133 61.6535 188.078 62.0561 187.947 62.4364C187.816 62.8166 187.61 63.1669 187.343 63.4668C187.076 63.7668 186.752 64.0106 186.39 64.1839C186.028 64.3572 185.636 64.4567 185.235 64.4765C184.835 64.4964 184.435 64.4362 184.057 64.2995Z" fill="black"/>
<path opacity="0.25" d="M173.49 70.5836C171.84 70.3104 167.558 66.5122 167.558 66.5122C167.558 66.5122 172.836 64.3058 174.484 64.579C175.277 64.7099 175.986 65.1517 176.454 65.8071C176.923 66.4625 177.113 67.2779 176.982 68.0739C176.852 68.8699 176.412 69.5812 175.759 70.0515C175.106 70.5218 174.293 70.7124 173.5 70.5815L173.49 70.5836Z" fill="black"/>
<path opacity="0.25" d="M183.913 47.3372C183.911 49.0158 186.945 53.8862 186.945 53.8862C186.945 53.8862 189.974 49.022 189.974 47.3455C189.985 46.9399 189.914 46.5363 189.767 46.1586C189.62 45.7808 189.399 45.4364 189.116 45.1458C188.834 44.8553 188.497 44.6243 188.125 44.4666C187.752 44.3089 187.352 44.2277 186.948 44.2277C186.544 44.2277 186.143 44.3089 185.771 44.4666C185.399 44.6243 185.061 44.8553 184.779 45.1458C184.497 45.4364 184.276 45.7808 184.129 46.1586C183.981 46.5363 183.911 46.9399 183.921 47.3455L183.913 47.3372Z" fill="black"/>
<path opacity="0.25" d="M171.656 54.8425C172.156 56.4445 176.495 60.1806 176.495 60.1806C176.495 60.1806 177.938 54.6293 177.435 53.0272C177.174 52.285 176.636 51.6733 175.935 51.3211C175.234 50.9688 174.424 50.9034 173.675 51.1387C172.927 51.3739 172.299 51.8915 171.923 52.5823C171.547 53.2732 171.453 54.0834 171.661 54.8425H171.656Z" fill="black"/>
<path opacity="0.25" d="M160.753 63.7779C160.975 65.4338 164.622 69.857 164.622 69.857C164.622 69.857 166.975 64.6307 166.752 62.9686C166.708 62.5659 166.584 62.1761 166.387 61.8222C166.191 61.4683 165.926 61.1574 165.608 60.9078C165.29 60.6582 164.926 60.475 164.536 60.3688C164.146 60.2627 163.74 60.2358 163.339 60.2898C162.939 60.3437 162.554 60.4775 162.206 60.6831C161.858 60.8887 161.555 61.162 161.314 61.4871C161.073 61.8121 160.899 62.1822 160.803 62.5756C160.706 62.969 160.689 63.3778 160.753 63.7779Z" fill="black"/>
<path d="M160.844 75.3876C160.844 75.3876 162.217 61.1802 170.396 53.6253C173.846 50.4767 176.186 46.2907 177.066 41.6948C177.466 39.5099 177.666 37.2928 177.662 35.0713" stroke="#535461" stroke-width="2" stroke-miterlimit="10"/>
<path d="M182.789 30.2776C182.17 31.8341 177.542 35.2121 177.542 35.2121C177.542 35.2121 176.548 29.5635 177.173 28.007C177.474 27.2596 178.059 26.6628 178.798 26.3478C179.537 26.0328 180.371 26.0254 181.116 26.3273C181.86 26.6293 182.455 27.2157 182.769 27.9577C183.083 28.6997 183.09 29.5364 182.789 30.2838V30.2776Z" fill="#7238DE"/>
<path d="M183.967 40.7757C182.599 41.7403 176.893 42.057 176.893 42.057C176.893 42.057 179.116 36.7706 180.483 35.8061C180.808 35.5625 181.177 35.3867 181.571 35.2891C181.964 35.1915 182.372 35.174 182.772 35.2378C183.172 35.3016 183.556 35.4453 183.899 35.6604C184.243 35.8754 184.54 36.1576 184.773 36.49C185.007 36.8224 185.171 37.1984 185.256 37.5957C185.342 37.993 185.348 38.4035 185.272 38.803C185.197 39.2024 185.043 39.5826 184.819 39.9211C184.594 40.2596 184.305 40.5495 183.967 40.7737V40.7757Z" fill="#7238DE"/>
<path d="M177.85 55.4262C176.183 55.5669 171.098 52.9424 171.098 52.9424C171.098 52.9424 175.676 49.5064 177.342 49.3657C178.143 49.2982 178.937 49.5524 179.55 50.0726C180.164 50.5927 180.546 51.3361 180.613 52.1393C180.681 52.9424 180.427 53.7394 179.909 54.3551C179.391 54.9707 178.65 55.3545 177.85 55.422V55.4262Z" fill="#7238DE"/>
<path d="M170.733 65.4628C169.114 65.8768 163.661 64.165 163.661 64.165C163.661 64.165 167.594 60.0026 169.213 59.5803C169.99 59.378 170.815 59.4939 171.507 59.9025C172.2 60.311 172.702 60.9788 172.903 61.7588C173.105 62.5389 172.989 63.3674 172.582 64.062C172.175 64.7566 171.51 65.2605 170.733 65.4628Z" fill="#7238DE"/>
<path d="M170.877 39.9727C171.553 41.5064 176.284 44.7333 176.284 44.7333C176.284 44.7333 177.089 39.0537 176.412 37.5199C176.075 36.8023 175.472 36.2455 174.731 35.9684C173.991 35.6914 173.171 35.716 172.448 36.0371C171.726 36.3582 171.157 36.9503 170.863 37.6868C170.569 38.4234 170.574 39.246 170.877 39.9789V39.9727Z" fill="#7238DE"/>
<path d="M162.702 51.8163C163.805 53.0769 169.279 54.7286 169.279 54.7286C169.279 54.7286 168.355 49.0676 167.251 47.8071C166.991 47.5009 166.672 47.2496 166.314 47.068C165.956 46.8864 165.566 46.7779 165.166 46.749C164.766 46.7202 164.364 46.7713 163.984 46.8997C163.603 47.028 163.252 47.2308 162.951 47.4965C162.649 47.7621 162.404 48.0852 162.228 48.4471C162.052 48.8089 161.949 49.2022 161.926 49.6041C161.903 50.006 161.959 50.4086 162.093 50.7884C162.226 51.1681 162.433 51.5176 162.702 51.8163Z" fill="#7238DE"/>
<path d="M156.331 64.4257C157.205 65.8539 162.322 68.4102 162.322 68.4102C162.322 68.4102 162.366 62.6746 161.497 61.2444C161.065 60.584 160.394 60.1185 159.625 59.9467C158.857 59.7749 158.052 59.9103 157.381 60.3241C156.71 60.7379 156.227 61.3976 156.033 62.1633C155.839 62.9291 155.949 63.7406 156.341 64.4257H156.331Z" fill="#7238DE"/>
<path d="M150.325 19.7483C150.668 18.4878 151.08 17.2211 151.369 15.944C151.022 17.2211 150.608 18.4919 150.325 19.7483Z" fill="url(#paint0_linear_31_252)"/>
<path d="M148.791 31.89C148.762 31.8403 148.741 31.7906 148.719 31.7451C148.719 31.7244 148.698 31.7078 148.69 31.6871C148.645 31.7084 148.599 31.7271 148.552 31.743C148.461 31.7782 148.368 31.8113 148.273 31.8382C148.178 31.8652 148.139 31.8796 148.067 31.8962C148.007 31.9169 147.946 31.9328 147.884 31.9438L147.9 31.9811C147.976 31.9645 148.051 31.95 148.127 31.9293L148.148 32.186C148.234 32.186 148.315 32.1736 148.393 32.1736C148.43 32.1715 148.467 32.1715 148.504 32.1736C148.665 32.1736 148.805 32.1736 148.917 32.1736C148.873 32.0804 148.828 31.9831 148.791 31.89ZM190.657 98.7727C189.688 97.4624 187.753 83.4 187.753 83.4C187.753 83.4 183.948 73.4006 184.986 69.4099C186.023 65.4193 182.152 55.2088 182.152 55.2088C182.152 55.2088 179.595 54.0931 179.456 52.4373C179.456 52.4373 169.015 49.1255 168.526 46.6417C168.13 44.605 161.654 43.1437 159.328 42.6821C158.618 39.8092 157.905 37.1287 157.379 35.6654C157.236 35.21 157.102 34.8167 156.979 34.5063C156.09 32.2294 153.343 32.0225 151.35 32.2046C151.264 31.8166 151.104 31.4489 150.878 31.1221C150.845 31.0097 150.78 30.9096 150.69 30.8344C150.648 30.7978 150.602 30.7646 150.554 30.735C150.518 30.6679 150.471 30.6077 150.414 30.557C150.357 30.5059 150.295 30.4614 150.228 30.4245C150.18 30.3985 150.131 30.3757 150.08 30.3562C149.96 30.3106 149.837 30.2766 149.711 30.2548C149.564 30.2245 149.415 30.2051 149.265 30.1969C149.629 30.0371 149.954 29.7989 150.216 29.4993C150.394 29.289 150.527 29.0437 150.606 28.779C150.671 28.5589 150.7 28.3296 150.692 28.1001C150.639 28.1947 150.577 28.2841 150.507 28.3671C150.593 27.4502 150.111 26.5188 149.835 25.606C149.5 24.4176 149.438 23.1686 149.653 21.9527C149.929 20.1188 150.614 18.2642 151.078 16.3973C151.079 16.3869 151.079 16.3765 151.078 16.3662C151.321 15.439 151.472 14.4898 151.528 13.5326C151.608 11.6014 151.115 9.67442 150.323 7.91506C149.62 6.35647 148.583 4.82272 146.995 4.18935C145.815 3.71122 144.493 3.7878 143.223 3.70915C140.372 3.53114 137.654 2.5252 134.944 1.61033C132.234 0.695465 129.446 -0.136611 126.594 0.0227669C123.741 0.182144 120.807 1.56273 119.505 4.09621C119.093 4.88688 118.856 5.76657 118.363 6.50964C117.439 7.91092 115.785 8.61259 114.405 9.57921C113.025 10.5458 111.811 11.9181 111.312 13.5554C111.039 14.4374 111.001 15.3757 111.2 16.2772C111.245 16.4808 111.303 16.6813 111.373 16.8775C111.569 17.4244 111.874 17.9252 112.271 18.3491C112.569 18.6624 112.913 18.9296 113.289 19.1419C113.762 19.4051 114.269 19.6028 114.795 19.7297C114.776 19.7918 114.758 19.858 114.737 19.9222C114.704 20.0278 114.675 20.1292 114.644 20.243C114.576 20.4976 114.512 20.7563 114.459 21.0171C114.457 21.0357 114.457 21.0545 114.459 21.073C114.205 22.2503 114.078 23.4515 114.079 24.6559C114.079 25.2255 114.108 25.7948 114.166 26.3615C114.991 34.7609 121.9 41.3864 130.436 41.8169C130.729 41.8314 131.024 41.8397 131.323 41.8397C131.459 41.8397 131.593 41.8397 131.735 41.8397C131.869 42.0177 132.001 42.1999 132.127 42.3779C132.253 42.5559 132.368 42.738 132.478 42.916L132.179 42.6055L131.88 42.3303C131.798 42.4419 131.708 42.5465 131.609 42.6428C131.414 42.574 131.215 42.5173 131.013 42.4731C130.157 42.2826 128.854 42.2123 127.138 42.7318C125.56 43.2058 123.632 44.1807 121.376 46.0332L110.381 52.6567L104.434 56.2872L102.291 61.5446C102.291 61.5446 100.68 67.7913 98.8879 74.9488C98.8177 74.9695 98.7497 74.9902 98.6816 75.0151C98.5365 74.9985 98.3905 74.9902 98.2444 74.9902C97.2046 74.9878 96.2043 75.3899 95.4536 76.112C94.7029 76.8341 94.2603 77.8201 94.2186 78.8629C90.6549 83.2095 90.4528 87.5562 91.2901 89.5515C91.3659 89.7385 91.4613 89.9168 91.5747 90.0835C92.1233 90.8783 93.1483 92.9274 94.1877 95.1111C94.1609 95.2912 94.1444 95.4423 94.1361 95.5561C94.1343 95.5934 94.1343 95.6307 94.1361 95.6679C94.1361 95.6679 94.7549 105.046 92.6925 107.735C92.2408 108.321 92.3089 109.091 92.6925 109.944C94.0743 113.011 99.5375 117.107 99.5375 117.107C99.5375 117.107 106.09 117.072 109.74 116.673C109.73 117.041 109.721 117.407 109.713 117.765C109.631 121.384 109.631 124.416 109.631 124.416L109.495 128.21C109.495 128.21 108.257 136.206 107.638 138.41C107.249 139.793 107.698 152.595 108.09 162.006H172.646C173.405 156.438 172.335 139.522 172.335 139.522C172.335 139.522 171.318 135.148 171.281 131.335C171.279 131.331 171.278 131.327 171.278 131.322C171.278 131.317 171.279 131.313 171.281 131.308C171.281 130.975 171.281 130.65 171.293 130.331L171.762 130.315L172.603 130.286H172.679C172.679 130.286 172.7 130.207 172.747 130.079C172.859 129.759 173.011 129.455 173.199 129.174C173.558 128.642 174.119 128.121 174.962 128.086C175.429 128.067 176.15 127.688 176.965 127.129C176.97 127.131 176.976 127.131 176.981 127.129C179.174 125.641 182.071 122.895 182.775 122.443C183.742 121.822 188.374 117.683 188.374 117.683C188.374 117.683 189.065 116.805 189.801 115.747L189.828 115.71C190.744 114.385 191.717 112.802 191.478 112.303C191.065 111.409 191.754 109.271 191.754 109.271C193.905 105.32 191.626 100.083 190.657 98.7727ZM150.777 35.1086C150.797 35.1704 150.809 35.2343 150.814 35.299C150.763 35.2307 150.711 35.1583 150.659 35.092L150.61 35.0258L150.575 34.9761L150.653 34.8685C150.653 34.8685 150.653 34.8685 150.653 34.883C150.708 34.9501 150.75 35.0265 150.777 35.1086ZM150.084 33.2747C149.859 33.3202 149.682 33.3616 149.566 33.3927C149.42 33.1319 149.28 32.8711 149.154 32.6062C149.485 32.7987 149.796 33.0225 150.084 33.2747ZM149.696 33.6017C149.696 33.5976 149.696 33.5934 149.696 33.5893L149.713 33.6017C149.797 33.6576 149.88 33.7114 149.956 33.7673C150.024 33.817 150.086 33.8646 150.148 33.9143C150.107 33.9867 150.061 34.0612 150.016 34.1213C149.944 34.0074 149.876 33.8977 149.81 33.7839C149.769 33.7384 149.731 33.6763 149.696 33.6017ZM148.459 31.0476C148.857 31.0081 149.259 31.0081 149.657 31.0476C149.713 31.0476 149.762 31.0579 149.812 31.0662C149.924 31.0835 150.034 31.112 150.14 31.1511C150.383 31.4933 150.534 31.8936 150.575 32.3122L150.464 32.3288L150.354 32.3495C150.148 32.3847 149.942 32.4199 149.781 32.453L149.575 32.4965C149.3 32.5565 149.142 32.602 149.135 32.6041C149.109 32.5482 149.082 32.4965 149.053 32.4426C149.008 32.3536 148.96 32.2626 148.919 32.1736C148.878 32.0846 148.824 31.9831 148.781 31.89C148.752 31.8403 148.731 31.7906 148.708 31.7451C148.708 31.7244 148.688 31.7078 148.68 31.6871C148.668 31.6652 148.657 31.6424 148.649 31.6188C148.523 31.3622 148.407 31.1055 148.296 30.853C148.284 30.8282 148.273 30.8013 148.263 30.7764L148.42 30.7661V30.8199L148.459 31.0476ZM99.2529 159.448C99.2364 156.366 99.0137 153.031 98.3949 149.902C98.131 148.571 97.8587 147.24 97.5824 145.932C97.5122 145.605 97.4442 145.282 97.3761 144.959L96.7409 145.044H96.6832C94.9508 136.845 93.14 129.622 93.14 129.622C93.14 129.622 89.5433 115.838 89.9599 114.739C90.0135 114.597 89.9454 114.212 89.7928 113.647C88.9225 110.513 85.2886 101.877 84.0182 98.9258C84.0182 98.9134 84.0079 98.8989 84.0037 98.8886C83.7975 98.3939 83.649 98.0606 83.6036 97.9634L83.9027 93.5587L83.9192 93.2938L83.9584 92.7308L83.9419 92.7163L83.9584 92.4555C83.9584 92.4555 80.8194 89.8724 75.5027 88.0074C75.2964 87.9329 75.0778 87.8605 74.8613 87.7901C75.1273 86.008 75.48 83.9961 75.9399 82.0359C75.9832 81.8393 76.0306 81.6489 76.0801 81.4564C76.1234 81.2639 76.1729 81.0776 76.2224 80.8893C76.3008 80.5829 76.3853 80.2807 76.472 79.9827C76.7586 79.8916 77.0412 79.7902 77.3196 79.6825L77.4268 79.6411C80.8567 78.3017 83.6869 75.7603 85.3932 72.4875C87.0995 69.2147 87.5664 65.4323 86.7075 61.8405C86.2177 59.8035 85.3133 57.8902 84.0512 56.2209C83.9563 56.0926 83.8552 55.9643 83.7542 55.838C83.6531 55.7118 83.5314 55.571 83.418 55.4427C84.014 54.0828 84.7173 52.7891 84.7751 51.4665C84.7854 51.299 84.7854 51.131 84.7751 50.9635V50.9428C84.6987 50.0921 84.3234 49.2311 83.449 48.3266C82.1724 46.9998 80.3554 46.3271 78.5385 46.0042C76.7215 45.6813 74.8695 45.673 73.0422 45.4557C70.0126 45.0914 67.0614 44.1538 64.0318 43.8661C60.3001 43.5193 56.543 44.1616 53.1363 45.7289C50.8821 46.7638 48.5991 48.5729 48.4629 51.0546C48.3516 53.1058 49.7746 55.0722 49.4157 57.0985C49.059 59.0897 47.0378 60.6566 47.2152 62.6705C47.2833 63.4571 47.6854 64.1608 48.1886 64.788C48.3619 64.995 48.5454 65.202 48.7352 65.4089C49.4694 66.1893 50.2778 66.9386 50.6882 67.9217C50.7047 67.9631 50.7212 68.0045 50.7357 68.0459C51.0842 69.0167 50.9275 70.2441 50.0654 70.8009C50.0702 70.8046 50.0738 70.8096 50.0757 70.8154C50.0881 70.8319 50.1005 70.8443 50.1108 70.8609C50.112 70.8576 50.112 70.8539 50.1108 70.8505C50.4164 71.2142 50.8285 71.4721 51.2884 71.5874L51.4637 71.6412C51.3214 71.7965 51.1873 71.9579 51.0512 72.1276L50.9625 72.2456C50.7352 72.5523 50.5285 72.8738 50.3438 73.2081C50.2386 73.3944 50.1376 73.5807 50.053 73.7669C49.7703 74.3348 49.5657 74.9385 49.4446 75.5615C49.224 76.9317 49.5354 78.3599 49.2013 79.7012C48.7888 81.357 47.4833 82.6279 46.747 84.1658C45.3529 87.0636 46.1428 90.4643 46.4233 93.6643C46.8048 98.011 46.1861 102.376 45.5694 106.694C45.2422 108.99 44.915 111.288 44.5877 113.589C43.7628 119.362 42.9378 125.135 42.1129 130.909C41.8118 133.024 41.455 135.256 40.0505 136.889H40.065C40.065 136.889 40.065 136.901 40.0505 136.905C40.4721 137.09 40.9205 137.206 41.3787 137.249C43.2121 137.433 45.1549 136.543 46.8048 135.57C48.1114 134.812 49.3488 133.94 50.5026 132.964C50.3335 133.585 50.152 134.262 49.9582 134.991C49.9588 134.998 49.9588 135.004 49.9582 135.011C47.6297 143.912 43.8845 160.228 43.8845 160.228C43.8845 160.228 43.5442 160.938 43.1028 161.996H101.262C100.581 161.168 99.9479 160.375 99.4529 159.736L99.2529 159.448ZM56.1906 77.1511C56.2051 77.1263 56.2154 77.1035 56.2298 77.0808C56.2298 77.147 56.2298 77.2112 56.2298 77.2733C56.2298 77.3353 56.2298 77.3912 56.2298 77.4492C56.2298 77.5071 56.2298 77.5009 56.2298 77.5299C56.2298 77.6148 56.2113 77.6996 56.1968 77.7845C56.1968 77.7845 56.1968 77.7948 56.1968 77.8031L56.4031 77.8797L56.6423 77.9791C58.0557 78.5393 59.487 79.0464 60.9361 79.5004C61.0846 79.548 61.2352 79.5935 61.3857 79.637L61.4167 79.8937C61.4538 80.1565 61.4889 80.4235 61.5219 80.6906C61.5219 80.6906 61.5219 80.703 61.5219 80.7113C61.6147 81.4502 61.7054 82.187 61.7858 82.9073C61.7858 82.9073 57.9993 81.4585 58.0468 83.6587C58.0446 83.698 58.0446 83.7374 58.0468 83.7767C58.0426 83.829 58.0426 83.8816 58.0468 83.934C58.0818 85.6478 58.616 86.6641 58.7232 87.1857C58.7168 87.2073 58.7055 87.2271 58.6902 87.2437C58.5987 87.4435 58.5672 87.6657 58.5995 87.8832C58.5959 88.2535 58.6249 88.6234 58.6861 88.9885C58.5747 89.0568 58.4654 89.1251 58.3561 89.1955C58.2736 89.2473 58.1952 89.3052 58.1148 89.3632C57.6089 87.6019 56.947 85.8895 56.137 84.2465C55.5699 83.075 54.9326 81.8538 54.9388 80.5684C54.9388 80.4856 54.9388 80.4008 54.9491 80.3159C54.9721 79.9434 55.0428 79.5754 55.1594 79.221C55.2069 79.0864 55.2584 78.954 55.3162 78.8236C55.451 78.5137 55.6017 78.2111 55.7678 77.917C55.8751 77.7224 55.9885 77.5299 56.0978 77.3354C56.1329 77.2774 56.1659 77.2174 56.1989 77.1594L56.1906 77.1511ZM148.791 31.89C148.762 31.8403 148.741 31.7906 148.719 31.7451C148.719 31.7244 148.698 31.7078 148.69 31.6871C148.645 31.7084 148.599 31.7271 148.552 31.743C148.461 31.7782 148.368 31.8113 148.273 31.8382C148.178 31.8652 148.139 31.8796 148.067 31.8962L147.884 31.9438L147.9 31.9811C147.976 31.9645 148.051 31.95 148.127 31.9293L148.148 32.186C148.234 32.186 148.315 32.1736 148.393 32.1736H148.504C148.665 32.1736 148.805 32.1736 148.917 32.1736C148.873 32.0804 148.828 31.9831 148.791 31.89Z" fill="url(#paint1_linear_31_252)"/>
<path d="M103.728 62.2918L102.491 62.8403C102.491 62.8403 94.4248 94.2894 94.4248 96.8312C94.4248 99.3729 111.528 113.516 111.528 113.516L114.197 95.4382C114.197 95.4382 110.365 53.9814 103.728 62.2918Z" fill="#E8F5FF"/>
<path d="M141.245 52.2883L134.099 48.546C133.698 46.8335 132.988 45.2094 132.003 43.7544C130.958 42.2392 129.568 40.751 127.835 39.9748C123.457 38.0044 146.355 27.6614 146.355 27.6614C146.716 28.9039 147.141 30.1267 147.628 31.325C148.807 34.2476 150.765 38.0271 153.287 39.1034C157.575 40.9352 141.245 52.2883 141.245 52.2883Z" fill="#421E04"/>
<path opacity="0.1" d="M147.628 31.325C146.649 34.7785 144.615 37.8363 141.811 40.0665C139.008 42.2968 135.577 43.5868 132.003 43.7544C130.958 42.2392 129.568 40.751 127.835 39.9748C123.457 38.0044 146.355 27.6614 146.355 27.6614C146.716 28.9039 147.141 30.1267 147.628 31.325Z" fill="black"/>
<path d="M148.271 26.1027C148.272 29.4897 147.272 32.8009 145.398 35.6175C143.523 38.4341 140.859 40.6295 137.741 41.9262C134.623 43.2228 131.192 43.5624 127.882 42.902C124.572 42.2415 121.532 40.6108 119.145 38.2159C116.759 35.8211 115.134 32.7697 114.475 29.4478C113.817 26.1259 114.155 22.6826 115.446 19.5534C116.738 16.4242 118.925 13.7498 121.731 11.8682C124.537 9.98673 127.836 8.98268 131.211 8.98309C133.454 8.97268 135.677 9.40837 137.752 10.265C139.826 11.1216 141.711 12.3822 143.297 13.974C144.883 15.5657 146.139 17.4571 146.993 19.5389C147.847 21.6206 148.281 23.8515 148.271 26.1027Z" fill="#452105"/>
<path d="M150.734 50.0901L146.081 60.9857L141.977 68.2177H128.84L125.008 58.3301L126.561 48.0761H136.594L143.072 47.7098L145.26 46.9771L146.671 47.7801L150.734 50.0901Z" fill="#575A89"/>
<path opacity="0.1" d="M149.131 35.566C149.131 35.566 152.033 36.1869 149.434 38.3251C146.836 40.4632 137.871 47.2626 137.871 47.2626C137.871 47.2626 141.02 50.0776 140.368 53.3749L150.802 47.5379L152.658 38.1988C152.658 38.1988 152.866 35.3921 149.131 35.566Z" fill="black"/>
<path opacity="0.1" d="M139.923 47.2627L133.286 48.3618C133.286 48.3618 134.656 53.4432 133.971 54.8859C133.95 54.9307 133.933 54.9771 133.919 55.0246L131.211 62.3704L133.241 68.1391L140.265 58.5247L137.871 54.8859C137.871 54.8859 140.401 51.5204 141.907 50.353C143.412 49.1856 139.923 47.2627 139.923 47.2627Z" fill="black"/>
<path d="M139.923 46.9791L133.286 48.0761C133.286 48.0761 134.656 53.1576 133.971 54.6003C133.95 54.6451 133.933 54.6915 133.919 54.7389L131.211 62.0848L133.241 67.8534L140.265 58.2328L137.871 54.5941C137.871 54.5941 140.401 51.2285 141.907 50.0611C143.412 48.8937 139.923 46.9791 139.923 46.9791Z" fill="#DCE6F2"/>
<path d="M149.41 35.0175C149.41 35.0175 152.311 35.6385 149.711 37.7766C147.11 39.9148 137.871 47.2627 137.871 47.2627C137.871 47.2627 141.292 49.5292 140.643 52.8243L151.076 46.9895L152.932 37.6504C152.932 37.6504 153.138 34.8437 149.41 35.0175Z" fill="#575A89"/>
<path opacity="0.1" d="M132.459 44.4021C132.459 44.4021 133.092 45.5902 135.887 47.7325C135.887 47.7325 131.234 50.2163 133.014 53.7081L125.897 51.8452L124.802 48.4114L132.459 44.4021Z" fill="black"/>
<path d="M132.185 44.1289C132.185 44.1289 132.818 45.317 135.612 47.4593C135.612 47.4593 130.96 49.9307 132.74 53.4328L125.624 51.57L124.529 48.1382L132.185 44.1289Z" fill="#575A89"/>
<path opacity="0.1" d="M150.734 50.0901L146.081 60.9857L141.985 68.2177H128.84L125.008 58.3301L126.559 48.0761H129.349C129.304 50.4689 130.174 53.2797 130.118 54.325C130.023 56.0429 132.672 65.3117 132.672 65.3117C132.672 65.3117 138.213 56.3162 140.401 55.5151C141.777 55.0122 144.691 50.827 146.669 47.7802L150.734 50.0901Z" fill="black"/>
<path d="M169.062 107.427L168.59 108.023C168.59 108.023 172.011 125.258 171.064 129.172C170.904 129.878 170.812 130.597 170.79 131.321V131.352C170.623 135.334 171.821 140.503 171.821 140.503C171.821 140.503 172.778 155.737 172.234 162.002H108.173C107.797 152.737 107.393 140.734 107.76 139.404C108.379 137.207 109.616 129.241 109.616 129.241L109.752 125.465C109.752 125.465 109.752 121.816 109.864 117.751C109.911 115.923 109.981 114.005 110.082 112.303C110.212 110.163 110.394 108.36 110.643 107.474C110.797 106.803 110.885 106.118 110.907 105.429C110.907 105.365 110.907 105.299 110.92 105.233C110.92 105.026 110.94 104.802 110.948 104.572C110.948 104.508 110.948 104.444 110.948 104.365C110.988 103.032 110.973 101.451 110.93 99.8117C110.93 99.7227 110.93 99.6316 110.93 99.5405C110.895 98.311 110.843 97.0567 110.786 95.8645C110.606 92.1388 110.373 88.9885 110.373 88.9885L102.505 62.8257L104.625 57.5849L110.509 53.9668L121.388 47.3744C126.695 42.9967 130.188 43.5224 131.521 44.0026C131.65 44.0469 131.777 44.0988 131.9 44.1579C131.941 44.1786 131.974 44.1951 132.005 44.2138C132.048 44.2339 132.088 44.2574 132.127 44.2841C131.762 44.4603 131.445 44.7223 131.203 45.0479C130.93 45.4184 130.736 45.8411 130.632 46.2898C130.562 46.568 130.513 46.8509 130.485 47.1364C130.458 47.4365 130.448 47.747 130.448 48.0595C130.463 48.7449 130.521 49.4287 130.623 50.1066C130.623 50.119 130.623 50.1356 130.623 50.1521C130.692 50.6365 130.776 51.1105 130.859 51.5555C130.858 51.563 130.858 51.5707 130.859 51.5782C130.953 52.0978 131.048 52.578 131.112 52.9919C131.125 53.0665 131.135 53.1348 131.145 53.1989C131.191 53.4725 131.212 53.7495 131.209 54.0269C131.232 54.6965 131.322 55.3622 131.477 56.0139C131.531 56.2871 131.593 56.579 131.661 56.8832C131.754 57.2972 131.855 57.7484 131.964 58.2079C132.024 58.4605 132.088 58.7213 132.154 58.98C132.178 59.0835 132.205 59.187 132.23 59.2925L132.271 59.456C132.711 61.2092 133.187 62.9541 133.48 64.0097C133.653 64.6306 133.762 65.0136 133.762 65.0136C133.762 65.0136 136.868 59.9735 139.347 57.1047C139.384 57.0633 139.417 57.024 139.452 56.9867C139.698 56.7032 139.939 56.4444 140.17 56.2168C140.675 55.7117 141.129 55.3516 141.494 55.2191C141.572 55.1904 141.647 55.1551 141.719 55.1135C142.734 54.536 144.371 52.4393 145.904 50.2432C146.054 50.0362 146.201 49.8106 146.349 49.5974C146.689 49.1048 147.019 48.6101 147.331 48.1361C147.57 47.7739 147.799 47.422 148.015 47.0867C149.047 45.4764 149.773 44.2759 149.773 44.2759L151.204 44.2117L151.453 44.1993H151.62L158.119 43.8971C158.119 43.8971 158.399 43.9447 158.861 44.0378C158.886 44.0378 158.911 44.0378 158.938 44.0544C161.243 44.5139 167.649 45.969 168.041 47.9871C168.519 50.4585 178.852 53.7557 178.852 53.7557C178.988 55.4116 181.519 56.5024 181.519 56.5024C181.519 56.5024 185.35 66.6653 184.325 70.6477C183.313 74.5804 186.961 84.3086 187.058 84.5818L186.359 85.4677L169.062 107.427Z" fill="#E8F5FF"/>
<path opacity="0.1" d="M149.129 34.8437C149.129 34.8437 155.454 33.0429 156.892 36.75C158.329 40.4571 161.545 55.4282 161.545 55.4282C161.545 55.4282 153.196 57.0075 151.008 55.4282C149.724 54.4909 148.136 54.074 146.559 54.2608L141.839 57.4877L140.445 57.0737C140.445 57.0737 147.997 45.8055 149.639 41.9763C151.28 38.1471 151.835 36.4354 149.129 34.8437Z" fill="black"/>
<path d="M148.855 34.0158C148.855 34.0158 155.184 32.215 156.628 35.9221C158.072 39.6292 161.281 54.6003 161.281 54.6003C161.281 54.6003 152.934 56.1796 150.744 54.6003C149.461 53.663 147.873 53.246 146.298 53.4329L141.573 56.6598L140.178 56.2458C140.178 56.2458 147.731 44.9776 149.373 41.1484C151.014 37.3192 151.561 35.6116 148.855 34.0158Z" fill="#E8F5FF"/>
<path opacity="0.1" d="M106.397 93.7408C106.397 93.7408 111.118 94.9082 112.009 97.5866C112.9 100.265 108.519 100.333 108.519 100.333C108.519 100.333 105.851 95.5954 106.397 93.7408Z" fill="black"/>
<path opacity="0.1" d="M123.981 113.516C123.981 113.516 112.419 137.276 115.088 139.542C117.756 141.809 123.981 113.516 123.981 113.516Z" fill="black"/>
<path opacity="0.1" d="M139.923 96.0073C139.923 96.0073 149.16 119.086 147.312 122.65C145.464 126.215 151.28 122.65 151.28 122.65L139.923 96.0073Z" fill="black"/>
<path d="M152.786 118.805C152.786 118.805 121.586 120.316 130.687 130.067C139.789 139.818 158.465 130.481 158.465 130.481L152.786 118.805Z" fill="#452005"/>
<path opacity="0.1" d="M148.271 26.1028C148.274 28.3486 147.835 30.5728 146.978 32.6476C146.691 32.6807 146.405 32.7014 146.128 32.7138C145.716 31.8052 145.937 30.7558 145.945 29.756C145.953 28.7563 145.586 27.5806 144.627 27.3116C142.715 26.7713 141.395 30.3584 139.51 29.7105C138.067 29.2179 138.444 27.0197 137.613 25.7509C136.955 24.747 135.637 24.4635 134.612 23.8342C132.432 22.4909 132.498 20.3424 131.486 18.3098C130.426 16.18 128.186 16.8092 126.241 18.0656C124.764 19.0219 123.49 20.3031 121.91 21.0648C120.543 21.7271 119.006 21.9672 117.49 22.0024C116.557 22.0387 115.624 21.9397 114.719 21.7085C115.783 17.6918 118.267 14.2007 121.707 11.8865C125.147 9.57216 129.308 8.59261 133.415 9.13047C137.522 9.66833 141.293 11.6869 144.026 14.8097C146.759 17.9325 148.267 21.9464 148.269 26.1028H148.271Z" fill="black"/>
<path d="M126.247 17.5171C124.769 18.4733 123.496 19.7525 121.916 20.5183C120.549 21.1786 119.013 21.4187 117.497 21.4539C115.641 21.4953 113.642 21.1683 112.374 19.8229C111.209 18.581 110.93 16.6705 111.423 15.0415C111.916 13.4126 113.098 12.061 114.486 11.0819C115.874 10.1029 117.484 9.42607 118.404 8.02479C118.891 7.28379 119.126 6.41031 119.53 5.62171C120.823 3.09857 123.731 1.73248 126.542 1.56275C129.353 1.39303 132.14 2.23338 134.816 3.14411C137.493 4.05484 140.191 5.05664 143.016 5.245C144.274 5.32365 145.582 5.245 146.749 5.72313C148.319 6.36271 149.348 7.89232 150.049 9.44884C150.835 11.2041 151.324 13.1207 151.241 15.0374C151.068 19.1295 148.374 23.145 149.558 27.0652C149.872 28.1105 150.46 29.1827 150.146 30.2279C149.688 31.7534 147.727 32.1011 146.141 32.1736C145.728 31.2649 145.949 30.2135 145.957 29.2158C145.966 28.2181 145.599 27.0404 144.642 26.7713C142.728 26.2352 141.408 29.816 139.527 29.1703C138.094 28.6756 138.465 26.4795 137.632 25.2107C136.974 24.2047 135.654 23.9232 134.631 23.294C132.451 21.9507 132.517 19.8022 131.504 17.7696C130.436 15.6294 128.194 16.2586 126.247 17.5171Z" fill="#110C09"/>
<path d="M95.9943 96.2806L94.4208 96.8312C94.4208 96.8312 95.0395 106.17 92.9771 108.849C90.9147 111.527 99.7499 118.186 99.7499 118.186C99.7499 118.186 111.86 118.117 112.203 117.151C112.545 116.184 111.584 99.8469 111.584 99.8469C111.584 99.8469 105.083 97.3052 105.63 93.2545C105.63 93.2545 103.646 102.799 100.705 102.387C97.7639 101.975 94.4249 99.5096 95.9943 96.2806Z" fill="#E8F5FF"/>
<path opacity="0.1" d="M101.243 105.276C103.536 105.276 105.395 103.57 105.395 101.465C105.395 99.361 103.536 97.6549 101.243 97.6549C98.9503 97.6549 97.0916 99.361 97.0916 101.465C97.0916 103.57 98.9503 105.276 101.243 105.276Z" fill="black"/>
<path d="M105.782 96.5558C105.782 96.5558 104.957 71.2872 97.7761 76.9172C90.595 82.5472 90.5248 89.2803 91.8922 91.2695C93.2595 93.2586 97.6441 103.217 97.6441 103.217C98.33 103.615 99.1003 103.846 99.8918 103.888C100.683 103.931 101.474 103.785 102.198 103.461C102.922 103.138 103.56 102.648 104.059 102.029C104.558 101.411 104.904 100.683 105.069 99.9048L105.782 96.5558Z" fill="#452005"/>
<path opacity="0.1" d="M150.579 32.5502C150.546 32.4392 150.481 32.3401 150.393 32.2646C150.039 31.9396 149.276 31.8258 148.125 31.9251L148.172 32.4716C149.707 32.3391 150.01 32.6454 150.049 32.6972V32.7489L150.096 32.8172C150.288 33.0753 150.423 33.3706 150.494 33.6843C150.565 33.9979 150.57 34.323 150.509 34.6387C150.173 36.3256 148.108 37.6689 148.088 37.6834L148.038 37.7124L148.007 37.76C147.116 39.0868 142.078 42.8311 140.76 43.7998L140.645 43.6673C140.055 44.1806 134.87 48.7364 134.59 50.4812C134.408 51.5762 133.179 52.0005 132.733 52.1185C132.263 51.7604 130.737 50.5413 129.943 49.1752C129.198 47.8898 132.195 45.3811 132.459 44.4021L132.047 43.9778C132.003 44.1351 128.155 47.7449 129.225 49.5891C130.083 51.0691 131.651 52.3358 132.199 52.7539C132.024 54.3518 130.933 63.7344 129.256 65.9574C127.173 68.7206 125.422 82.6465 125.616 87.5086C125.787 91.8283 124.663 99.9876 120.91 103.492C120.26 104.125 119.476 104.603 118.617 104.89C117.757 105.176 116.844 105.265 115.946 105.148H115.9H115.855C115.801 105.148 110.357 105.707 105.782 101.836C102.039 98.6753 99.9191 93.5173 99.4777 86.5006H99.387L99.3498 84.4576C100.365 84.2986 101.279 83.7511 101.9 82.9299C102.521 82.1088 102.801 81.078 102.68 80.0542C102.56 79.0303 102.049 78.0932 101.255 77.4395C100.46 76.7859 99.4444 76.4668 98.4205 76.5491C97.3966 76.6315 96.4443 77.1089 95.7638 77.8812C95.0833 78.6534 94.7275 79.6603 94.7712 80.6903C94.8149 81.7203 95.2546 82.6932 95.9981 83.4046C96.7415 84.116 97.7308 84.5105 98.7579 84.5052H98.8033L98.8404 86.5357L98.6589 86.5482C99.1127 93.7926 101.34 99.1514 105.259 102.461C108.237 104.938 112.041 106.188 115.902 105.957C116.176 105.987 116.452 106.002 116.727 106.003C118.497 106.012 120.2 105.324 121.471 104.088C125.424 100.393 126.627 91.9339 126.439 87.4672C126.233 82.3153 128.07 68.8904 129.914 66.4459C131.721 64.0469 132.816 54.6996 133.008 52.8885C133.661 52.7042 135.14 52.1226 135.392 50.6116C135.573 49.5188 139.036 46.1511 141.166 44.2862L141.102 44.2117C142.249 43.3713 145.815 40.7219 147.582 39.0205C148.131 38.4927 148.676 37.9649 149.245 37.4619C149.929 36.8534 150.8 35.8868 151.029 34.7443C151.107 34.3671 151.107 33.9779 151.03 33.6006C150.952 33.2233 150.799 32.8659 150.579 32.5502Z" fill="black"/>
<path d="M132.129 52.6235C132.043 52.5635 129.988 51.0877 128.959 49.3118C127.891 47.4676 131.739 43.8598 131.781 43.7025L132.193 44.1268C131.931 45.1038 128.935 47.6145 129.679 48.8978C130.617 50.5185 132.593 51.9363 132.614 51.9508L132.129 52.6235Z" fill="#353146"/>
<path d="M140.492 44.2014L140.17 43.7563C140.236 43.7087 146.714 39.0061 147.735 37.4847L147.768 37.4392L147.815 37.4082C147.836 37.3937 149.901 36.0524 150.237 34.3634C150.299 34.0481 150.294 33.7232 150.223 33.4098C150.152 33.0964 150.016 32.8014 149.824 32.544L149.777 32.4737V32.424C149.736 32.3702 149.432 32.0659 147.898 32.1984L147.851 31.6499C149.003 31.5505 149.764 31.6644 150.119 31.9893C150.207 32.0656 150.272 32.1653 150.307 32.277C150.53 32.5917 150.686 32.9489 150.766 33.3266C150.847 33.7043 150.849 34.0945 150.773 34.4731C150.544 35.6177 149.676 36.5844 148.989 37.1908C148.422 37.6938 147.875 38.2257 147.329 38.7494C145.256 40.7427 140.719 44.0378 140.492 44.2014Z" fill="#E8F5FF"/>
<path d="M99.0838 83.737L98.5374 83.7471L98.5982 87.081L99.1447 87.071L99.0838 83.737Z" fill="#E8F5FF"/>
<path d="M98.4919 84.2425C100.696 84.2425 102.483 82.4493 102.483 80.2373C102.483 78.0253 100.696 76.2322 98.4919 76.2322C96.2879 76.2322 94.5012 78.0253 94.5012 80.2373C94.5012 82.4493 96.2879 84.2425 98.4919 84.2425Z" fill="#7238DE"/>
<path d="M98.492 83.5635C100.322 83.5635 101.806 82.0743 101.806 80.2372C101.806 78.4002 100.322 76.911 98.492 76.911C96.6616 76.911 95.1777 78.4002 95.1777 80.2372C95.1777 82.0743 96.6616 83.5635 98.492 83.5635Z" fill="#E8F5FF"/>
<path d="M116.468 105.736C116.192 105.736 115.917 105.722 115.643 105.692C111.782 105.92 107.978 104.671 104.999 102.196C101.08 98.8845 98.857 93.5318 98.3992 86.2812L99.2241 86.2295C99.6655 93.2462 101.786 98.4063 105.531 101.565C110.105 105.425 115.548 104.877 115.601 104.877H115.647H115.692C116.591 104.993 117.504 104.904 118.364 104.618C119.223 104.331 120.008 103.854 120.658 103.221C124.41 99.7165 125.534 91.5572 125.363 87.2375C125.156 82.3713 126.907 68.4454 128.992 65.6842C130.818 63.2646 131.95 52.3586 131.962 52.2489L131.993 51.9385L132.298 51.8846C132.317 51.8846 134.099 51.5452 134.322 50.2081C134.61 48.4653 139.787 43.9096 140.375 43.3942L140.913 44.0151C138.774 45.878 135.311 49.2477 135.138 50.3426C134.887 51.8577 133.408 52.4373 132.756 52.6194C132.55 54.4326 131.463 63.7779 129.663 66.1769C127.819 68.6214 125.981 82.0463 126.188 87.1981C126.365 91.6649 125.175 100.126 121.221 103.819C119.948 105.058 118.241 105.747 116.468 105.736Z" fill="#353146"/>
<g opacity="0.1">
<path d="M150.028 21.2096C150.367 19.9552 150.775 18.6926 151.06 17.4218C150.719 18.6988 150.309 19.9552 150.028 21.2096Z" fill="black"/>
<path d="M146.578 31.0662C146.166 30.1575 146.386 29.106 146.395 28.1084C146.403 27.1107 146.036 25.9433 145.079 25.6639C143.165 25.1278 141.845 28.7107 139.964 28.0628C138.52 27.5681 138.902 25.372 138.069 24.1032C137.411 23.0973 136.093 22.8158 135.07 22.1866C132.888 20.8432 132.954 18.6947 131.944 16.6622C130.881 14.5302 128.644 15.1595 126.697 16.4179C125.218 17.3742 123.946 18.6554 122.366 19.4192C120.999 20.0795 119.462 20.3196 117.946 20.3548C116.1 20.3982 114.092 20.0691 112.823 18.7237C111.846 17.6888 111.493 16.1716 111.695 14.7496C111.66 14.8469 111.629 14.9442 111.598 15.0415C111.103 16.6704 111.392 18.585 112.549 19.8228C113.817 21.1682 115.826 21.4952 117.672 21.4538C119.19 21.4187 120.724 21.1785 122.094 20.5183C123.678 19.7524 124.95 18.4733 126.425 17.517C128.372 16.2585 130.611 15.6293 131.671 17.7612C132.682 19.7938 132.618 21.9423 134.798 23.2856C135.829 23.9066 137.139 24.1964 137.799 25.2023C138.624 26.4753 138.259 28.6672 139.694 29.1619C141.573 29.8077 142.893 26.2269 144.807 26.763C145.764 27.0321 146.133 28.2119 146.122 29.2075C146.112 30.203 145.898 31.2566 146.306 32.1652C147.892 32.0928 149.853 31.7513 150.313 30.2196C150.376 29.9998 150.406 29.7715 150.4 29.5428C149.729 30.7039 148.005 31.002 146.578 31.0662Z" fill="black"/>
</g>
<path opacity="0.1" d="M183.851 82.067L186.246 84.6087C186.246 84.6087 188.162 98.6153 189.119 99.9255C190.075 101.236 192.336 106.448 190.214 110.362C190.214 110.362 189.529 112.492 189.939 113.384C190.35 114.276 186.862 118.74 186.862 118.74C186.862 118.74 182.278 122.859 181.319 123.478C180.36 124.097 175.299 129.04 173.589 129.108C171.879 129.176 171.32 131.306 171.32 131.306L161.673 131.65C161.673 131.65 156.343 131.37 155.184 132.126C155.184 132.126 155.803 123.954 149.849 118.598L157.443 115.851C157.443 115.851 160.318 114.609 161.206 113.311C161.766 112.516 162.559 111.916 163.475 111.595C163.475 111.595 165.595 110.084 165.663 109.26C165.731 108.437 168.256 107.427 168.256 107.427L166.826 95.1835L167.579 74.8577C167.579 74.8577 169.974 57.8271 175.037 58.7896C180.1 59.752 183.851 82.067 183.851 82.067Z" fill="black"/>
<path d="M184.676 82.067L187.071 84.6087C187.071 84.6087 188.987 98.6153 189.943 99.9255C190.9 101.236 193.161 106.448 191.039 110.362C191.039 110.362 190.356 112.492 190.766 113.384C191.177 114.276 187.687 118.74 187.687 118.74C187.687 118.74 183.103 122.859 182.144 123.478C181.185 124.097 176.124 129.04 174.414 129.108C172.704 129.176 172.145 131.306 172.145 131.306L162.498 131.65C162.498 131.65 157.164 131.37 156.009 132.126C156.009 132.126 156.628 123.954 150.674 118.598L158.268 115.851C158.268 115.851 161.143 114.609 162.031 113.311C162.591 112.516 163.384 111.916 164.3 111.595C164.3 111.595 166.42 110.084 166.488 109.26C166.556 108.437 169.081 107.427 169.081 107.427L167.651 95.1835L168.404 74.8577C168.404 74.8577 170.799 57.8271 175.862 58.7896C180.925 59.752 184.676 82.067 184.676 82.067Z" fill="#E8F5FF"/>
<path opacity="0.1" d="M175.775 102.6C175.775 102.6 182.822 100.737 184.67 103.014C186.518 105.291 175.775 102.6 175.775 102.6Z" fill="black"/>
<path opacity="0.1" d="M174.133 105.723C176.528 107.406 183.917 107.474 183.917 107.474L174.133 105.723Z" fill="black"/>
<path opacity="0.1" d="M177.759 114.135C177.965 114.203 182.839 119.423 184.885 117.844C186.93 116.265 177.759 114.135 177.759 114.135Z" fill="black"/>
<path opacity="0.1" d="M112.126 70.3248C112.126 70.3248 113.558 80.2145 112.852 84.2424C112.147 88.2703 114.721 93.2607 114.721 93.2607L112.126 70.3248Z" fill="black"/>
<path d="M80.4401 74.3466C78.7902 75.6443 77.5857 78.716 76.7134 82.0919C75.1913 87.9806 74.6943 94.809 74.6943 94.809C74.6943 94.809 61.557 91.787 62.514 90.4147C63.1162 89.5516 62.3077 83.0481 61.6333 78.3331C61.2312 75.5471 60.8723 73.3841 60.8723 73.3841C60.8723 73.3841 84.9566 70.774 80.4401 74.3466Z" fill="#744929"/>
<path opacity="0.1" d="M80.4401 74.0712C78.7902 75.3711 77.5857 78.4407 76.7134 81.8166C74.0959 82.6142 71.3122 82.6862 68.6573 82.0248C66.0024 81.3634 63.5753 79.9933 61.6333 78.0598C61.2312 75.2718 60.8723 73.1088 60.8723 73.1088C60.8723 73.1088 84.9566 70.5008 80.4401 74.0712Z" fill="black"/>
<path d="M87.5014 66.6736C87.5028 70.2738 86.2351 73.7583 83.9227 76.5105C81.6103 79.2628 78.4023 81.1052 74.8665 81.7119C71.3307 82.3186 67.695 81.6503 64.6029 79.8253C61.5109 78.0003 59.1618 75.1364 57.9714 71.7403C56.7811 68.3442 56.8262 64.6349 58.0988 61.269C59.3714 57.903 61.7894 55.0975 64.9249 53.3488C68.0605 51.6001 71.7113 51.0211 75.2313 51.7142C78.7513 52.4072 81.9135 54.3278 84.1583 57.1358C86.3215 59.8408 87.5008 63.2052 87.5014 66.6736Z" fill="#744929"/>
<path opacity="0.1" d="M99.4796 162.002H95.1487L94.7836 154.325L94.4021 146.379C94.4021 146.379 95.3858 146.232 96.9532 146.013L97.5864 145.928H97.6379C97.9803 147.54 98.3185 149.196 98.6444 150.85C99.1868 153.786 99.4691 156.764 99.4879 159.75C99.4879 159.957 99.4879 160.164 99.4879 160.359C99.5003 160.911 99.4879 161.464 99.4796 162.002Z" fill="black"/>
<path d="M98.6485 162.002H44.334C44.5691 161.466 44.7258 161.141 44.7258 161.141C44.7258 161.141 49.0712 142.061 51.28 133.989C51.2807 133.982 51.2807 133.975 51.28 133.968C51.556 132.872 51.8892 131.79 52.2782 130.729C52.3034 130.657 52.3358 130.587 52.3752 130.522C53.4682 128.738 54.8376 126.815 52.9217 124.068C51.0057 121.321 51.6843 109.236 51.6843 109.236C51.6843 109.236 54.0106 98.9341 56.4731 93.4407C56.8468 92.5898 57.3772 91.8174 58.0364 91.1639C58.2507 90.9535 58.4795 90.7584 58.7211 90.5802C58.9047 90.4417 59.0962 90.3138 59.2944 90.1973L59.3336 90.1725C60.368 89.5838 61.5167 89.2259 62.7014 89.1231C63.543 89.0348 64.3925 89.0584 65.2278 89.1934C69.2206 89.7813 72.4173 90.7644 74.9581 91.8842C81.8443 94.9207 83.9294 98.99 83.9706 99.0748L83.9871 99.11C84.2635 99.7579 88.3057 109.229 89.7618 113.649C90.1392 114.799 90.3454 115.609 90.2629 115.83C89.8504 116.927 93.4101 130.661 93.4101 130.661C93.4101 130.661 95.06 137.284 96.7099 145.048C96.7821 145.371 96.8501 145.694 96.9161 146.021C97.211 147.43 97.5039 148.867 97.7864 150.301C98.3339 153.257 98.6162 156.257 98.63 159.264C98.6602 160.201 98.6664 161.113 98.6485 162.002Z" fill="#FF748E"/>
<path opacity="0.1" d="M62.3777 84.3997C62.3777 84.3997 58.6303 82.9508 58.6757 85.1489C58.7211 87.3471 59.5893 88.3986 59.315 88.7194C59.0407 89.0402 59.4512 90.9631 59.4512 90.9631C59.4512 90.9631 64.5143 90.9631 66.8406 92.0146C69.167 93.0661 77.7423 95.1732 78.8374 95.8148C79.9325 96.4565 83.9933 99.3335 83.9933 99.3335L84.3584 93.8857C84.3584 93.8857 80.1615 90.4063 73.2752 88.6221C66.389 86.8379 62.3777 84.3997 62.3777 84.3997Z" fill="black"/>
<path d="M62.3777 84.1244C62.3777 84.1244 58.6303 82.6755 58.6757 84.8737C58.7211 87.0718 59.5893 88.1233 59.315 88.4441C59.0407 88.765 59.4512 90.6878 59.4512 90.6878C59.4512 90.6878 64.5143 90.6878 66.8406 91.7414C69.167 92.7949 77.7423 94.9 78.8374 95.5395C79.9325 96.1791 83.9933 99.0583 83.9933 99.0583L84.3625 93.627C84.3625 93.627 80.1656 90.1476 73.2793 88.3634C66.3931 86.5792 62.3777 84.1244 62.3777 84.1244Z" fill="#FF748E"/>
<path opacity="0.1" d="M73.6899 97.2347C73.6899 97.2347 80.8505 105.015 80.4854 107.17C80.1204 109.325 73.6899 97.2347 73.6899 97.2347Z" fill="black"/>
<path opacity="0.1" d="M62.058 125.341C62.058 125.341 56.8093 130.195 55.2625 130.47C53.7158 130.745 56.4484 131.66 58.2262 130.93C60.0039 130.199 63.7945 128.276 63.7945 128.276L62.058 125.341Z" fill="black"/>
<path d="M100.781 162.002H88.5409C86.8292 160.512 85.2102 159.131 84.179 158.301C82.5291 156.972 81.3392 155.016 80.5802 153.443C80.409 153.085 80.2605 152.75 80.1347 152.446C79.9095 151.921 79.7112 151.386 79.5408 150.841L88.6049 145.439C89.1058 145.867 89.5765 146.329 90.0135 146.822L90.1228 146.948C90.626 147.544 91.0694 148.221 91.1086 148.776C91.154 149.422 92.9441 151.92 94.7734 154.319C96.6296 156.759 98.5311 159.092 98.6569 159.249C98.6569 159.249 98.9703 159.678 99.4818 160.336C99.8427 160.812 100.288 161.383 100.781 162.002Z" fill="#744929"/>
<path opacity="0.1" d="M84.1584 57.1358C83.7232 58.121 83.3334 59.1435 83.2757 60.2406C83.1128 63.4074 83.3768 70.4883 79.8831 72.078C78.1528 72.8604 76.3008 71.1424 74.4034 71.101C73.0381 71.072 71.7862 71.9414 70.953 73.028C70.1198 74.1147 69.6022 75.4042 68.9979 76.6337C68.4479 77.7496 67.8143 78.8221 67.1026 79.8419C66.8899 80.154 66.6556 80.4507 66.4014 80.7299C64.2711 79.8277 62.3741 78.4494 60.855 76.7C59.3358 74.9506 58.2346 72.8762 57.6352 70.635C57.0359 68.3937 56.9542 66.0448 57.3964 63.767C57.8386 61.4893 58.793 59.3429 60.1869 57.4915C61.5808 55.64 63.3774 54.1323 65.4398 53.0833C67.5023 52.0342 69.7761 51.4715 72.088 51.438C74.4 51.4045 76.689 51.9011 78.7808 52.8899C80.8726 53.8788 82.7118 55.3338 84.1584 57.1441V57.1358Z" fill="black"/>
<path d="M83.0014 59.6818C82.8364 62.8486 83.1025 69.9295 79.6068 71.5171C77.8764 72.2995 76.0244 70.5836 74.127 70.5422C72.7617 70.5111 71.5119 71.3825 70.6767 72.4671C69.8414 73.5517 69.3279 74.8433 68.7216 76.0749C68.1713 77.1907 67.5378 78.2632 66.8263 79.2831C66.4014 79.8875 65.9312 80.494 65.2774 80.8334C64.139 81.4295 62.7593 81.0942 61.5383 80.7113C59.9544 80.2104 58.3939 79.646 56.8568 79.0182C56.892 78.7853 56.91 78.55 56.9104 78.3144C56.865 78.4014 56.8155 78.4821 56.766 78.569L56.6691 78.7388C56.4938 79.0492 56.3226 79.3597 56.1659 79.6785C56.1061 79.8006 56.0483 79.9268 55.9968 80.0531C55.7893 80.523 55.6591 81.0234 55.6111 81.5351C55.5059 82.9157 56.1844 84.2259 56.7866 85.4678C59.1027 90.2719 60.534 95.8894 58.7913 100.929C58.0364 103.121 56.7289 105.069 55.774 107.187C54.1048 110.937 53.6135 115.109 54.3654 119.146C54.8418 121.655 55.7967 124.139 55.5616 126.682C55.1491 131.06 51.3874 134.318 47.6194 136.558C45.5839 137.762 43.0925 138.834 40.9312 137.882C42.3088 136.268 42.6635 134.034 42.9605 131.927C43.7731 126.18 44.5877 120.43 45.4044 114.677C45.7303 112.388 46.0554 110.099 46.3799 107.81C46.9863 103.509 47.6009 99.1598 47.2214 94.8317C46.945 91.6421 46.1654 88.2559 47.5431 85.3684C48.2711 83.8388 49.5684 82.5721 49.9726 80.9245C50.3046 79.5853 49.9953 78.1613 50.2139 76.7972C50.3335 76.1767 50.5361 75.5751 50.8161 75.0089C51.1726 74.2406 51.638 73.5281 52.1979 72.8935C51.6452 72.7321 51.1296 72.5106 50.8161 72.047C51.7029 71.4674 51.837 70.1613 51.4348 69.1802C51.0326 68.1991 50.2283 67.4519 49.5044 66.6778C48.7805 65.9037 48.0834 65.0012 47.9927 63.9456C47.8174 61.9358 49.8179 60.3793 50.1706 58.3964C50.5274 56.3783 49.1167 54.4161 49.2301 52.3732C49.3621 49.9038 51.6225 48.1093 53.854 47.0682C57.2214 45.5037 60.9412 44.861 64.636 45.2053C67.643 45.4909 70.5529 46.4244 73.5516 46.7867C75.3603 46.9936 77.1938 47.0143 78.9901 47.3331C80.7864 47.6519 82.5869 48.3246 83.8511 49.6472C87.1839 53.1349 83.1911 56.0057 83.0014 59.6818Z" fill="#412D23"/>
<path opacity="0.1" d="M80.2132 153.445C79.1614 152.988 77.2475 153.261 73.9621 152.257C70.6768 151.253 70.0436 146.716 70.0436 146.716V146.702C70.0044 146.598 69.6992 145.924 67.6327 143.56C65.3497 140.95 60.4144 127.767 60.4144 127.767C60.4144 127.767 56.0381 123.05 56.1763 121.311C56.3144 119.572 55.3987 114.946 55.4895 109.772C55.5802 104.597 65.3414 101.165 65.3414 101.165C84.1358 97.8226 79.7099 119.568 79.2088 121.216C78.7076 122.864 81.3083 127.314 81.3083 127.314C80.9412 129.251 82.8138 132.25 82.8138 132.25C82.8138 132.25 83.2675 134.904 83.3603 135.912C83.3655 135.958 83.3759 136.004 83.3913 136.048C83.6924 136.998 86.1466 137.86 87.1448 138.383C88.1945 138.934 91.5706 143.74 91.5706 143.74C92.2986 147.269 81.2608 153.909 80.2132 153.445Z" fill="black"/>
<path d="M80.7597 152.617C79.71 152.158 77.794 152.433 74.5107 151.427C71.2274 150.421 70.5922 145.888 70.5922 145.888V145.874C70.5551 145.768 70.2478 145.096 68.1813 142.732C65.8983 140.122 60.963 126.937 60.963 126.937C60.963 126.937 56.5867 122.222 56.7228 120.483C56.8589 118.745 55.9474 114.118 56.0381 108.948C56.1288 103.778 65.8838 100.348 65.8838 100.348C84.6782 97.005 80.2524 118.751 79.7512 120.398C79.2501 122.046 81.8507 126.496 81.8507 126.496C81.4836 128.433 83.3562 131.433 83.3562 131.433C83.3562 131.433 83.81 134.086 83.9048 135.094C83.9083 135.141 83.918 135.187 83.9337 135.231C84.2348 136.181 86.689 137.042 87.6893 137.566C88.7369 138.114 92.1151 142.922 92.1151 142.922C92.8472 146.445 81.8095 153.085 80.7597 152.617Z" fill="#FF748E"/>
<path opacity="0.1" d="M66.2549 111.701C66.2549 111.701 74.4652 120.394 76.608 120.394C78.7508 120.394 66.2549 111.701 66.2549 111.701Z" fill="black"/>
<path d="M80.7595 152.617C79.7098 152.158 77.7938 152.433 74.5105 151.427C71.2273 150.421 70.592 145.888 70.592 145.888V145.874C72.7678 144.425 78.2785 140.333 80.4502 138.836C81.9784 137.787 83.2261 136.245 83.9562 135.223C84.2573 136.173 86.7115 137.034 87.7118 137.557C88.7594 138.106 92.1376 142.914 92.1376 142.914C92.8471 146.445 81.8093 153.085 80.7595 152.617Z" fill="#FF748E"/>
<g opacity="0.1">
<path d="M50.8284 72.0697C50.8387 72.0863 50.8531 72.1008 50.8655 72.1173C50.9274 72.0387 50.9913 71.96 51.0573 71.8855C50.987 71.9541 50.9104 72.0158 50.8284 72.0697Z" fill="black"/>
<path d="M55.6132 81.5578C55.6998 80.409 56.3123 79.3969 56.8856 78.3868C56.5103 78.2419 56.1349 78.095 55.7637 77.9418C55.7991 77.7096 55.817 77.475 55.8173 77.2401C55.2378 78.275 54.6067 79.2934 54.518 80.4587C54.4129 81.8414 55.0914 83.1495 55.6936 84.3914C58.0117 89.1934 59.4409 94.811 57.6982 99.8531C56.9413 102.043 55.6358 103.993 54.681 106.11C53.0124 109.86 52.5217 114.031 53.2744 118.068C53.7467 120.578 54.7036 123.06 54.4685 125.604C54.0561 129.982 50.2964 133.24 46.5264 135.477C44.9858 136.392 43.1853 137.23 41.4632 137.17C41.3038 137.428 41.126 137.673 40.9312 137.905C43.0946 138.863 45.5839 137.785 47.6194 136.576C51.3915 134.341 55.1594 131.091 55.5719 126.705C55.807 124.161 54.8501 121.68 54.3757 119.169C53.6228 115.133 54.112 110.962 55.7781 107.211C56.7268 105.096 58.0467 103.144 58.7954 100.954C60.5381 95.9121 59.1068 90.2946 56.7908 85.4926C56.1906 84.2424 55.508 82.9404 55.6132 81.5578Z" fill="black"/>
<path d="M83.8469 49.672C83.644 49.4631 83.4262 49.2694 83.1952 49.0924C85.6948 52.3462 82.0856 55.1115 81.9062 58.6137C81.7453 61.7805 82.0093 68.8635 78.5136 70.449C76.7853 71.2335 74.9313 69.5155 73.036 69.4741C71.6686 69.4451 70.4188 70.3165 69.5836 71.4011C68.7483 72.4857 68.2348 73.7773 67.6305 75.0068C67.0792 76.1225 66.445 77.195 65.7331 78.215C65.3206 78.8215 64.8381 79.4259 64.1822 79.7674C63.0479 80.3615 61.6682 80.0282 60.4452 79.6432C59.2559 79.2679 58.0776 78.8539 56.9103 78.4013C56.9079 78.6169 56.89 78.832 56.8567 79.045C58.3952 79.6743 59.9564 80.2386 61.5403 80.7382C62.7612 81.1231 64.141 81.4564 65.2773 80.8623C65.9311 80.5208 66.4054 79.9144 66.8282 79.3079C67.5406 78.2893 68.1742 77.2174 68.7236 76.1017C69.3299 74.8722 69.8414 73.5786 70.6787 72.494C71.516 71.4094 72.7637 70.5401 74.129 70.569C76.0264 70.6104 77.8805 72.3284 79.6087 71.5439C83.1044 69.9584 82.8384 62.8755 83.0013 59.7086C83.1911 56.0264 87.1838 53.1576 83.8469 49.672Z" fill="black"/>
</g>
<path opacity="0.1" d="M56.6711 78.7408C56.4958 79.0513 56.3246 79.3618 56.1679 79.6805C56.1081 79.8026 56.0503 79.9289 55.9988 80.0552C54.9181 78.9623 52.2865 76.3646 50.8181 75.5595C51.1751 74.7914 51.6405 74.079 52.1999 73.4441C52.1999 73.4441 55.6997 75.3007 56.6711 78.7408Z" fill="black"/>
<path d="M56.768 78.571C55.9575 74.8888 52.1999 72.8955 52.1999 72.8955C51.6401 73.5301 51.1746 74.2426 50.8181 75.0109C52.367 75.8616 55.2213 78.7138 56.1679 79.6804L56.768 78.571Z" fill="#FF748E"/>
</g>
<defs>
<linearGradient id="paint0_linear_31_252" x1="150.847" y1="19.7483" x2="150.847" y2="15.944" gradientUnits="userSpaceOnUse">
<stop stop-color="#808080" stop-opacity="0.25"/>
<stop offset="0.54" stop-color="#808080" stop-opacity="0.12"/>
<stop offset="1" stop-color="#808080" stop-opacity="0.1"/>
</linearGradient>
<linearGradient id="paint1_linear_31_252" x1="116.364" y1="162.002" x2="116.364" y2="4.38002e-07" gradientUnits="userSpaceOnUse">
<stop stop-color="#808080" stop-opacity="0.25"/>
<stop offset="0.54" stop-color="#808080" stop-opacity="0.12"/>
<stop offset="1" stop-color="#808080" stop-opacity="0.1"/>
</linearGradient>
<clipPath id="clip0_31_252">
<rect width="224" height="162" fill="white"/>
</clipPath>
</defs>
</svg>
