<svg width="81" height="80" viewBox="0 0 81 80" fill="none" xmlns="http://www.w3.org/2000/svg">
<path d="M40.5765 0C18.4965 0 0.576538 17.92 0.576538 40C0.576538 62.08 18.4965 80 40.5765 80C62.6565 80 80.5765 62.08 80.5765 40C80.5765 17.92 62.6565 0 40.5765 0ZM29.7365 57.16L15.3765 42.8C13.8165 41.24 13.8165 38.72 15.3765 37.16C16.9365 35.6 19.4565 35.6 21.0165 37.16L32.5765 48.68L60.0965 21.16C61.6565 19.6 64.1765 19.6 65.7365 21.16C67.2965 22.72 67.2965 25.24 65.7365 26.8L35.3765 57.16C33.8565 58.72 31.2965 58.72 29.7365 57.16Z" fill="#5DECA8"/>
</svg>
