<svg width="33" height="32" viewBox="0 0 33 32" fill="none" xmlns="http://www.w3.org/2000/svg">
<rect width="32" height="32" transform="translate(0.983887)" fill="#CEB6F5"/>
<path d="M15.8276 25.36C15.3956 25.36 14.9476 25.328 14.4836 25.264C14.0356 25.216 13.6036 25.144 13.1876 25.048C12.7876 24.968 12.4196 24.88 12.0836 24.784C11.7476 24.672 11.4916 24.568 11.3156 24.472L11.8916 22C12.2276 22.16 12.7156 22.344 13.3556 22.552C13.9956 22.744 14.7876 22.84 15.7316 22.84C16.9956 22.84 17.9076 22.6 18.4676 22.12C19.0276 21.624 19.3076 20.968 19.3076 20.152C19.3076 19.624 19.1956 19.184 18.9716 18.832C18.7636 18.48 18.4676 18.2 18.0836 17.992C17.7156 17.768 17.2836 17.616 16.7876 17.536C16.3076 17.44 15.7956 17.392 15.2516 17.392H14.2676V15.04H15.4676C15.8356 15.04 16.2036 15.008 16.5716 14.944C16.9556 14.864 17.2996 14.736 17.6036 14.56C17.9076 14.368 18.1556 14.12 18.3476 13.816C18.5396 13.512 18.6356 13.12 18.6356 12.64C18.6356 12.256 18.5636 11.928 18.4196 11.656C18.2756 11.384 18.0836 11.16 17.8436 10.984C17.6196 10.808 17.3556 10.68 17.0516 10.6C16.7476 10.52 16.4276 10.48 16.0916 10.48C15.3716 10.48 14.7316 10.592 14.1716 10.816C13.6116 11.024 13.1156 11.264 12.6836 11.536L11.6276 9.376C11.8516 9.232 12.1236 9.08 12.4436 8.92C12.7636 8.76 13.1156 8.608 13.4996 8.464C13.8996 8.32 14.3236 8.208 14.7716 8.128C15.2196 8.032 15.6916 7.984 16.1876 7.984C17.1156 7.984 17.9156 8.096 18.5876 8.32C19.2596 8.544 19.8116 8.864 20.2436 9.28C20.6916 9.68 21.0196 10.16 21.2276 10.72C21.4516 11.264 21.5636 11.864 21.5636 12.52C21.5636 13.288 21.3476 13.976 20.9156 14.584C20.4996 15.192 19.9556 15.656 19.2836 15.976C20.1476 16.28 20.8596 16.784 21.4196 17.488C21.9956 18.192 22.2836 19.096 22.2836 20.2C22.2836 20.936 22.1556 21.624 21.8996 22.264C21.6436 22.888 21.2516 23.432 20.7236 23.896C20.1956 24.344 19.5236 24.704 18.7076 24.976C17.9076 25.232 16.9476 25.36 15.8276 25.36Z" fill="white"/>
</svg>
