<svg width="33" height="32" viewBox="0 0 33 32" fill="none" xmlns="http://www.w3.org/2000/svg">
<rect width="32" height="32" transform="translate(0.374023)" fill="#CEB6F5"/>
<path d="M18.7457 20.248C18.7457 19.72 18.6417 19.248 18.4337 18.832C18.2257 18.416 17.8577 18.064 17.3297 17.776C16.8177 17.488 16.1217 17.272 15.2417 17.128C14.3777 16.984 13.2817 16.912 11.9537 16.912C12.1297 15.376 12.2657 13.92 12.3617 12.544C12.4577 11.152 12.5377 9.76 12.6017 8.368H21.0977V10.816H15.0737C15.0577 11.088 15.0337 11.4 15.0017 11.752C14.9857 12.088 14.9617 12.432 14.9297 12.784C14.9137 13.136 14.8897 13.472 14.8577 13.792C14.8257 14.112 14.7937 14.384 14.7617 14.608C17.1297 14.736 18.8737 15.28 19.9937 16.24C21.1297 17.184 21.6977 18.48 21.6977 20.128C21.6977 20.88 21.5697 21.576 21.3137 22.216C21.0577 22.856 20.6657 23.408 20.1377 23.872C19.6097 24.336 18.9457 24.704 18.1457 24.976C17.3457 25.232 16.4097 25.36 15.3377 25.36C14.9057 25.36 14.4657 25.328 14.0177 25.264C13.5697 25.2 13.1377 25.12 12.7217 25.024C12.3217 24.944 11.9617 24.856 11.6417 24.76C11.3217 24.664 11.0817 24.576 10.9217 24.496L11.4737 22.048C11.8097 22.208 12.2897 22.384 12.9137 22.576C13.5537 22.752 14.3297 22.84 15.2417 22.84C15.8657 22.84 16.4017 22.776 16.8497 22.648C17.2977 22.504 17.6577 22.312 17.9297 22.072C18.2177 21.832 18.4257 21.56 18.5537 21.256C18.6817 20.936 18.7457 20.6 18.7457 20.248Z" fill="white"/>
</svg>
