<svg width="147" height="64" viewBox="0 0 147 64" fill="none" xmlns="http://www.w3.org/2000/svg">
<path fill-rule="evenodd" clip-rule="evenodd" d="M31.6229 43.0642C25.2227 43.0642 20.0342 37.8758 20.0342 31.4755C20.0342 25.0752 25.2227 19.8868 31.6229 19.8868C35.3943 19.8868 38.7449 21.6883 40.8611 24.4777L56.4585 12.1366C50.6986 4.7501 41.7155 0 31.6229 0C14.2395 0 0.147461 14.0921 0.147461 31.4755C0.147461 48.8589 14.2395 62.951 31.6229 62.951C42.3841 62.951 51.8839 57.5506 57.5602 49.3122L39.0919 40.3366C37.0748 42.0385 34.4687 43.0642 31.6229 43.0642ZM91.0201 56.3501V62.951H110.907L110.908 60.7496L110.921 47.6042H122.496H146.86V31.4755H134.084H110.929L110.93 30.7392C111.31 24.682 116.343 19.8868 122.496 19.8868H146.86V0H122.496C111.45 0 101.733 5.68984 96.1159 14.2985C99.775 19.4416 101.927 25.7318 101.927 32.5245C101.927 42.0451 97.6998 50.5784 91.0201 56.3501ZM56.7997 11.753C55.3064 9.83812 53.6007 8.09688 51.7177 6.56477C56.7813 3.08537 62.9137 1.04902 69.5218 1.04902C86.9052 1.04902 100.997 15.1411 100.997 32.5245C100.997 49.9079 86.9052 64 69.5218 64C62.2917 64 55.6309 61.5622 50.3167 57.4638C53.273 55.3164 55.8487 52.677 57.9232 49.6661L58.335 49.0684L38.8489 39.5982L38.8451 39.6015C38.3224 37.3267 38.0463 34.9579 38.0463 32.5245C38.0463 29.4885 38.4761 26.5529 39.2783 23.7752C39.6126 24.1141 39.9251 24.4747 40.2134 24.8547L40.5982 25.3619L57.1806 12.2415L56.7997 11.753ZM69.5218 44.1132C63.1215 44.1132 57.9331 38.9248 57.9331 32.5245C57.9331 26.1242 63.1215 20.9358 69.5218 20.9358C75.9221 20.9358 81.1105 26.1242 81.1105 32.5245C81.1105 38.9248 75.9221 44.1132 69.5218 44.1132Z" fill="url(#paint0_linear_29_32)"/>
<defs>
<linearGradient id="paint0_linear_29_32" x1="97.1868" y1="1.04903" x2="42.4403" y2="58.8021" gradientUnits="userSpaceOnUse">
<stop offset="0.0001" stop-color="#1686EE"/>
<stop offset="1" stop-color="#8312F4"/>
</linearGradient>
</defs>
</svg>
