<svg width="57" height="24" viewBox="0 0 57 24" fill="none" xmlns="http://www.w3.org/2000/svg">
<path fill-rule="evenodd" clip-rule="evenodd" d="M12.7948 16.1491C10.3947 16.1491 8.449 14.2034 8.449 11.8033C8.449 9.40321 10.3947 7.45754 12.7948 7.45754C14.209 7.45754 15.4655 8.13311 16.2591 9.17913L22.1081 4.55123C19.9481 1.78129 16.5795 0 12.7948 0C6.27598 0 0.991455 5.28452 0.991455 11.8033C0.991455 18.3221 6.27598 23.6066 12.7948 23.6066C16.8302 23.6066 20.3926 21.5815 22.5212 18.4921L15.5956 15.1262C14.8392 15.7644 13.8619 16.1491 12.7948 16.1491ZM35.0687 21.1313V23.6066H42.5262L42.5268 22.7811L42.5316 17.8516H46.872H56.0087V11.8033H51.2178H42.5347L42.5349 11.5272C42.6773 9.25574 44.5647 7.45754 46.872 7.45754H56.0087V0H46.872C42.7298 0 39.086 2.13369 36.9796 5.36194C38.3518 7.29062 39.1587 9.64942 39.1587 12.1967C39.1587 15.7669 37.5736 18.9669 35.0687 21.1313ZM22.236 4.40738C21.6761 3.68929 21.0364 3.03633 20.3303 2.46179C22.2291 1.15701 24.5288 0.393384 27.0068 0.393384C33.5256 0.393384 38.8101 5.67791 38.8101 12.1967C38.8101 18.7155 33.5256 24 27.0068 24C24.2955 24 21.7978 23.0858 19.8049 21.5489C20.9135 20.7437 21.8794 19.7539 22.6573 18.6248L22.8118 18.4007L15.5045 14.8493L15.5031 14.8505C15.3071 13.9975 15.2035 13.1092 15.2035 12.1967C15.2035 11.0582 15.3647 9.95733 15.6655 8.91569C15.7909 9.04279 15.9081 9.17801 16.0162 9.32052L16.1605 9.51072L22.3789 4.59055L22.236 4.40738ZM27.0068 16.5425C24.6067 16.5425 22.6611 14.5968 22.6611 12.1967C22.6611 9.79659 24.6067 7.85093 27.0068 7.85093C29.4069 7.85093 31.3526 9.79659 31.3526 12.1967C31.3526 14.5968 29.4069 16.5425 27.0068 16.5425Z" fill="white"/>
</svg>
