<svg width="33" height="32" viewBox="0 0 33 32" fill="none" xmlns="http://www.w3.org/2000/svg">
<rect width="32" height="32" transform="translate(0.991943)" fill="#CEB6F5"/>
<path d="M21.7156 12.688C21.7156 13.264 21.5956 13.832 21.3556 14.392C21.1156 14.936 20.8036 15.472 20.4196 16C20.0516 16.512 19.6276 17.016 19.1476 17.512C18.6676 17.992 18.1876 18.464 17.7076 18.928C17.4516 19.168 17.1636 19.456 16.8436 19.792C16.5236 20.128 16.2196 20.464 15.9316 20.8C15.6436 21.136 15.3956 21.464 15.1876 21.784C14.9796 22.088 14.8676 22.344 14.8516 22.552H22.2436V25H11.6596C11.6436 24.872 11.6356 24.72 11.6356 24.544C11.6356 24.352 11.6356 24.208 11.6356 24.112C11.6356 23.344 11.7556 22.64 11.9956 22C12.2516 21.344 12.5796 20.736 12.9796 20.176C13.3796 19.616 13.8276 19.088 14.3236 18.592C14.8196 18.096 15.3156 17.608 15.8116 17.128C16.1956 16.76 16.5636 16.4 16.9156 16.048C17.2676 15.696 17.5716 15.352 17.8276 15.016C18.0996 14.664 18.3156 14.312 18.4756 13.96C18.6356 13.592 18.7156 13.216 18.7156 12.832C18.7156 12 18.4756 11.408 17.9956 11.056C17.5156 10.704 16.9316 10.528 16.2436 10.528C15.7956 10.528 15.3796 10.592 14.9956 10.72C14.6116 10.848 14.2676 11 13.9636 11.176C13.6756 11.352 13.4196 11.536 13.1956 11.728C12.9716 11.904 12.8036 12.048 12.6916 12.16L11.2516 10.12C11.9236 9.48 12.7076 8.968 13.6036 8.584C14.5156 8.184 15.4916 7.984 16.5316 7.984C18.3076 7.984 19.6116 8.408 20.4436 9.256C21.2916 10.088 21.7156 11.232 21.7156 12.688Z" fill="white"/>
</svg>
