<svg width="33" height="32" viewBox="0 0 33 32" fill="none" xmlns="http://www.w3.org/2000/svg">
<rect width="32" height="32" transform="translate(0.479889)" fill="#CEB6F5"/>
<path d="M17.7476 11.944C17.3636 12.408 16.9636 12.904 16.5476 13.432C16.1476 13.96 15.7556 14.512 15.3716 15.088C14.9876 15.664 14.6196 16.256 14.2676 16.864C13.9156 17.456 13.5956 18.048 13.3076 18.64H17.7476V11.944ZM20.5796 8.368V18.64H22.4516V21.016H20.5796V25H17.7476V21.016H10.4516V18.952C10.7716 18.248 11.1956 17.44 11.7236 16.528C12.2676 15.616 12.8676 14.68 13.5236 13.72C14.1796 12.76 14.8756 11.816 15.6116 10.888C16.3476 9.96 17.0836 9.12 17.8196 8.368H20.5796Z" fill="white"/>
</svg>
